<?xml version="1.0" encoding="iso-8859-1"?>
<!-- Generator: Adobe Illustrator 19.0.0, SVG Export Plug-In . SVG Version: 6.00 Build 0)  -->
<svg version="1.1" id="Capa_1" xmlns="http://www.w3.org/2000/svg" xmlns:xlink="http://www.w3.org/1999/xlink" x="0px" y="0px"
	 viewBox="0 0 512.002 512.002" style="enable-background:new 0 0 512.002 512.002;" xml:space="preserve">
<g>
	<g>
		<path d="M507.547,467.329c-4.595-3.061-10.804-1.819-13.867,2.775c-2.607,3.912-7.534,6.248-13.179,6.248
			c-5.645,0-10.571-2.336-13.179-6.248c-6.325-9.49-17.473-15.156-29.821-15.156c-12.348,0-23.496,5.666-29.821,15.156
			c-2.646,3.971-6.903,6.248-11.679,6.248c-4.776,0-9.032-2.277-11.679-6.248c-6.325-9.49-16.912-15.156-28.321-15.156
			c-0.589,0-1.175,0.025-1.76,0.055c7.615-15.151,11.76-32.039,11.76-49.353c0-60.654-49.346-110-110-110s-110,49.346-110,110
			c0,23.369,7.521,46.122,21.295,64.961c-2.664,3.646-6.734,5.741-11.295,5.741c-4.776,0-9.032-2.277-11.679-6.248
			c-6.325-9.49-16.912-15.156-28.321-15.156s-21.997,5.666-28.321,15.156c-2.607,3.912-7.534,6.248-13.179,6.248
			s-10.571-2.336-13.179-6.248c-6.325-9.49-17.473-15.156-29.821-15.156S8.005,460.614,1.68,470.104
			c-3.063,4.596-1.82,10.805,2.775,13.867c4.597,3.063,10.805,1.82,13.867-2.775c2.607-3.912,7.534-6.248,13.179-6.248
			c5.645,0,10.571,2.336,13.179,6.248c6.325,9.49,17.473,15.156,29.821,15.156c12.348,0,23.497-5.666,29.821-15.156
			c2.646-3.971,6.903-6.248,11.679-6.248s9.032,2.277,11.679,6.248c6.325,9.49,16.912,15.156,28.321,15.156
			c11.409,0,21.997-5.666,28.313-15.145c0.721-1.079,1.557-2.038,2.475-2.844c3.003-2.63,7.051-3.83,11.109-3.29
			c4.035,0.535,7.508,2.709,9.782,6.122c6.325,9.49,16.912,15.156,28.321,15.156s21.996-5.666,28.321-15.156
			c2.646-3.971,6.903-6.248,11.679-6.248c4.776,0,9.032,2.277,11.682,6.252c5.999,8.992,15.547,14.446,26.271,15.073
			c0.226,0.025,0.456,0.035,0.686,0.045c0.024,0.001,0.047,0.004,0.071,0.005c0.008,0,0.016,0,0.024,0
			c0.116,0.004,0.229,0.018,0.346,0.018c0.116,0,0.229-0.01,0.344-0.014c11.666,0.182,22.422-5.406,28.897-15.13
			c2.646-3.971,6.903-6.248,11.679-6.248c4.776,0,9.032,2.277,11.679,6.248c6.325,9.49,16.912,15.156,28.321,15.156
			s21.996-5.666,28.321-15.156c2.607-3.912,7.534-6.248,13.179-6.248c5.645,0,10.571,2.336,13.179,6.248
			c6.325,9.49,17.473,15.156,29.821,15.156c12.348,0,23.496-5.666,29.821-15.156C513.385,476.6,512.143,470.391,507.547,467.329z
			 M312.298,475.856c-3.237-0.868-6.05-2.866-7.976-5.751c-6.325-9.491-16.912-15.157-28.321-15.157s-21.996,5.666-28.321,15.156
			c-2.646,3.971-6.903,6.248-11.679,6.248s-9.032-2.277-11.677-6.246c-5.434-8.157-14.106-13.572-23.794-14.858
			c-6.166-0.816-12.348,0.058-17.918,2.428c-10.758-15.199-16.611-33.378-16.611-52.026c0-49.626,40.374-90,90-90
			c49.626,0,90,40.374,90,90C346.001,432.881,333.468,458.832,312.298,475.856z"/>
	</g>
</g>
<g>
	<g>
		<path d="M256.001,175.65c-5.522,0-10,4.478-10,10v60c0,5.522,4.478,10,10,10c5.522,0,10-4.478,10-10v-60
			C266.001,180.127,261.524,175.65,256.001,175.65z"/>
	</g>
</g>
<g>
	<g>
		<path d="M96.001,395.65h-60c-5.523,0-10,4.478-10,10c0,5.522,4.477,10,10,10h60c5.523,0,10-4.478,10-10
			C106.001,400.128,101.524,395.65,96.001,395.65z"/>
	</g>
</g>
<g>
	<g>
		<path d="M476.001,395.65h-60c-5.522,0-10,4.478-10,10c0,5.522,4.478,10,10,10h60c5.522,0,10-4.478,10-10
			C486.001,400.128,481.523,395.65,476.001,395.65z"/>
	</g>
</g>
<g>
	<g>
		<path d="M455.192,290.651c-2.761-4.783-8.876-6.425-13.66-3.661l-51.971,30c-4.783,2.761-6.423,8.876-3.662,13.659
			c1.853,3.209,5.214,5.003,8.671,5.003c1.695,0,3.415-0.433,4.989-1.342l51.971-30
			C456.313,301.549,457.953,295.434,455.192,290.651z"/>
	</g>
</g>
<g>
	<g>
		<path d="M371,206.459c-4.783-2.76-10.899-1.122-13.659,3.662l-30,51.971c-2.762,4.783-1.122,10.898,3.661,13.66
			c1.574,0.908,3.293,1.341,4.989,1.341c3.457,0,6.818-1.794,8.67-5.003l30-51.971C377.423,215.336,375.783,209.221,371,206.459z"/>
	</g>
</g>
<g>
	<g>
		<path d="M184.662,262.092l-30-51.971c-2.76-4.785-8.877-6.421-13.66-3.662c-4.783,2.762-6.422,8.877-3.661,13.66l30,51.971
			c1.852,3.209,5.213,5.003,8.67,5.003c1.696,0,3.416-0.433,4.99-1.341C185.784,272.99,187.423,266.875,184.662,262.092z"/>
	</g>
</g>
<g>
	<g>
		<path d="M122.441,316.99l-51.97-30c-4.783-2.762-10.899-1.123-13.66,3.661c-2.761,4.783-1.122,10.898,3.661,13.659l51.97,30
			c1.574,0.909,3.294,1.342,4.99,1.342c3.456,0,6.818-1.794,8.67-5.003C128.863,325.866,127.224,319.751,122.441,316.99z"/>
	</g>
</g>
<g>
	<g>
		<path d="M434.283,27.368c-7.558-7.557-17.601-11.719-28.281-11.719c-11.938,0-22.665,5.264-30,13.585
			c-7.335-8.321-18.062-13.585-30-13.585c-10.681,0-20.724,4.162-28.281,11.719c-3.905,3.905-3.905,10.237,0,14.143
			c3.905,3.905,10.235,3.905,14.141,0c3.779-3.78,8.801-5.861,14.139-5.861c11.028,0,20,8.972,20,20c0,5.522,4.478,10,10,10
			c5.522,0,10-4.478,10-10c0-11.028,8.972-20,20-20c5.338,0,10.359,2.081,14.139,5.861c3.906,3.904,10.236,3.904,14.143,0
			C438.188,37.606,438.188,31.274,434.283,27.368z"/>
	</g>
</g>
<g>
	<g>
		<path d="M474.283,127.368c-7.558-7.557-17.601-11.719-28.281-11.719c-11.938,0-22.665,5.264-30,13.585
			c-7.335-8.321-18.062-13.585-30-13.585c-10.681,0-20.724,4.162-28.281,11.719c-3.905,3.905-3.905,10.237,0,14.143
			c3.906,3.904,10.236,3.904,14.143,0c3.779-3.78,8.801-5.861,14.139-5.861c11.026,0,19.998,8.972,19.998,20c0,5.522,4.478,10,10,10
			c5.522,0,10-4.478,10-10c0-11.028,8.972-20,20-20c5.338,0,10.359,2.081,14.139,5.861c3.906,3.904,10.236,3.904,14.143,0
			C478.188,137.606,478.188,131.274,474.283,127.368z"/>
	</g>
</g>
<g>
	<g>
		<path d="M314.283,87.368c-7.558-7.557-17.601-11.719-28.281-11.719c-11.938,0-22.665,5.264-30,13.585
			c-7.335-8.321-18.062-13.585-30-13.585c-10.68,0-20.723,4.162-28.281,11.719c-3.905,3.905-3.906,10.236,0,14.142
			c3.906,3.907,10.237,3.906,14.142,0.001c3.78-3.779,8.801-5.861,14.139-5.861c11.028,0,20,8.972,20,20c0,5.522,4.478,10,10,10
			c5.522,0,10-4.478,10-10c-0.001-11.028,8.971-20,19.999-20c5.338,0,10.359,2.081,14.139,5.861c3.906,3.904,10.236,3.904,14.143,0
			C318.188,97.606,318.188,91.274,314.283,87.368z"/>
	</g>
</g>
<g>
</g>
<g>
</g>
<g>
</g>
<g>
</g>
<g>
</g>
<g>
</g>
<g>
</g>
<g>
</g>
<g>
</g>
<g>
</g>
<g>
</g>
<g>
</g>
<g>
</g>
<g>
</g>
<g>
</g>
</svg>
